<svg width="321" height="64" viewBox="0 0 321 64" fill="none" xmlns="http://www.w3.org/2000/svg">
<path d="M27.5659 44.9585H48.1682C48.7608 44.9585 49.3292 44.7231 49.7482 44.3041C50.1672 43.885 50.4027 43.3167 50.4027 42.7241L58.1834 14.2346C58.1834 13.9389 58.1247 13.6462 58.0108 13.3733C57.8968 13.1005 57.7299 12.853 57.5196 12.6451C57.3092 12.4373 57.0598 12.2733 56.7856 12.1625C56.5114 12.0518 56.218 11.9966 55.9223 12.0002H22.1526C21.5588 12.0001 20.989 12.2351 20.5679 12.6538C20.1467 13.0725 19.9084 13.6408 19.9048 14.2346L13.2546 42.7241C13.2546 43.3167 13.4901 43.885 13.9091 44.3041C14.3281 44.7231 14.8965 44.9585 15.4891 44.9585H18.3886" stroke="black" stroke-width="4.89427"/>
<path d="M54.14 44.9586H49.5248L56.175 21.9622H67.1079C67.2724 21.9618 67.4349 21.9973 67.5842 22.0662C67.7335 22.1351 67.866 22.2358 67.9724 22.3612L72.734 30.7404C72.9046 30.9357 72.9991 31.186 73 31.4453L68.571 44.9586H63.7828" stroke="black" stroke-width="4.89427"/>
<path d="M23.0836 51.4092C25.8088 51.4092 28.0181 49.1702 28.0181 46.4083C28.0181 43.6464 25.8088 41.4073 23.0836 41.4073C20.3584 41.4073 18.1492 43.6464 18.1492 46.4083C18.1492 49.1702 20.3584 51.4092 23.0836 51.4092Z" stroke="black" stroke-width="4.89427"/>
<path d="M59.0479 51.4092C61.7731 51.4092 63.9823 49.1702 63.9823 46.4083C63.9823 43.6464 61.7731 41.4073 59.0479 41.4073C56.3226 41.4073 54.1134 43.6464 54.1134 46.4083C54.1134 49.1702 56.3226 51.4092 59.0479 51.4092Z" stroke="black" stroke-width="4.89427"/>
<path d="M29.654 18.5439H7.86792" stroke="black" stroke-width="4.89427" stroke-linecap="round"/>
<path d="M25.3579 25.5134H9.96936" stroke="black" stroke-width="4.89427" stroke-linecap="round"/>
<path d="M26.9141 33.3606H3" stroke="black" stroke-width="4.89427" stroke-linecap="round"/>
<path d="M135.434 48.4414C135.387 48.9102 135.223 49.2734 134.941 49.5312C134.66 49.8125 134.297 49.9531 133.852 49.9531C133.617 49.9531 133.395 49.918 133.184 49.8477C132.738 50.1992 132.211 50.4688 131.602 50.6562C130.992 50.8438 130.418 51.0312 129.879 51.2188C129.223 51.1953 128.578 51.1367 127.945 51.043C127.312 50.9492 126.656 50.9258 125.977 50.9727C125.742 50.8086 125.496 50.7031 125.238 50.6562C124.98 50.6094 124.711 50.5742 124.43 50.5508C124.172 50.5508 123.914 50.5156 123.656 50.4453C123.422 50.375 123.188 50.2109 122.953 49.9531H121.195C121.031 49.9531 120.785 49.8711 120.457 49.707C120.152 49.5664 119.801 49.4141 119.402 49.25C119.027 49.0859 118.617 48.9336 118.172 48.793C117.75 48.6523 117.352 48.582 116.977 48.582H116.766C116.508 48.3711 116.203 48.207 115.852 48.0898C115.523 47.9961 115.184 47.9023 114.832 47.8086C114.48 47.7383 114.141 47.6562 113.812 47.5625C113.484 47.4688 113.203 47.3398 112.969 47.1758C112.734 47.0117 112.465 46.8477 112.16 46.6836C111.855 46.4961 111.539 46.4141 111.211 46.4375C110.766 46.1797 110.297 45.957 109.805 45.7695C109.336 45.582 108.855 45.4062 108.363 45.2422L106.922 44.7148C106.453 44.5273 105.984 44.3047 105.516 44.0469C105.445 44.0703 105.363 44.0703 105.27 44.0469C105.176 44.0234 105.094 44.0117 105.023 44.0117C104.883 44.0117 104.801 44.0586 104.777 44.1523C104.613 43.9883 104.426 43.8477 104.215 43.7305C104.027 43.6133 103.84 43.4727 103.652 43.3086C103.559 43.332 103.465 43.3555 103.371 43.3789C103.301 43.3789 103.207 43.3789 103.09 43.3789C102.879 43.3789 102.668 43.3555 102.457 43.3086C102.27 43.2617 102.082 43.2031 101.895 43.1328C101.684 43.6016 101.543 44.1289 101.473 44.7148C101.402 45.3008 101.344 45.9102 101.297 46.543C101.273 47.1523 101.238 47.7617 101.191 48.3711C101.145 49.0039 101.039 49.5781 100.875 50.0938C100.922 50.2812 100.945 50.4688 100.945 50.6562V51.2539C100.945 51.6523 101.004 51.9688 101.121 52.2031C101.074 52.4141 101.027 52.6133 100.98 52.8008C100.957 52.9883 100.922 53.1758 100.875 53.3633C100.898 53.6211 100.91 53.8555 100.91 54.0664C100.934 54.3008 100.945 54.5469 100.945 54.8047V55.4023C100.945 55.6133 100.922 55.8242 100.875 56.0352C100.641 56.1758 100.406 56.3047 100.172 56.4219C99.9375 56.5625 99.7031 56.7266 99.4688 56.9141C99.3047 56.6094 99.0234 56.4336 98.625 56.3867C98.5312 56.5039 98.4609 56.6562 98.4141 56.8438C98.3906 57.0547 98.2852 57.1602 98.0977 57.1602C97.7695 56.9023 97.5 56.6914 97.2891 56.5273C97.0781 56.3633 96.8438 56.1172 96.5859 55.7891C96.5625 55.7422 96.5508 55.6836 96.5508 55.6133C96.5508 55.4961 96.5742 55.3906 96.6211 55.2969C96.668 55.2031 96.6914 55.1094 96.6914 55.0156C96.6914 54.7344 96.6562 54.4883 96.5859 54.2773C96.5391 53.9727 96.5039 53.668 96.4805 53.3633C96.457 53.082 96.4453 52.8008 96.4453 52.5195C96.4453 52.1211 96.4688 51.7344 96.5156 51.3594C96.5859 50.9844 96.7031 50.5977 96.8672 50.1992C97.125 49.5195 97.3008 48.8047 97.3945 48.0547C97.5117 47.3047 97.5938 46.5547 97.6406 45.8047C97.6875 45.0312 97.7109 44.2578 97.7109 43.4844C97.7344 42.7109 97.7812 41.9727 97.8516 41.2695C97.6875 40.8945 97.4883 40.6016 97.2539 40.3906C97.043 40.1562 96.9375 39.793 96.9375 39.3008C96.9375 38.8555 97.0781 38.5156 97.3594 38.2812C97.6406 38.0234 97.8867 37.7188 98.0977 37.3672C98.0508 37.2266 98.0859 37.1328 98.2031 37.0859L98.625 33.3945C98.6484 33.1367 98.6836 32.8555 98.7305 32.5508C98.8008 32.2461 98.8477 31.9648 98.8711 31.707C98.918 31.168 98.9414 30.6406 98.9414 30.125C98.9414 29.6094 98.9648 29.0938 99.0117 28.5781C99.1289 27.4297 99.2344 26.293 99.3281 25.168C99.4453 24.043 99.5039 22.918 99.5039 21.793C99.5039 21.2539 99.4805 20.7148 99.4336 20.1758C99.4102 19.6367 99.3398 19.0977 99.2227 18.5586C98.8242 18.6758 98.3789 18.8047 97.8867 18.9453C97.418 19.0625 97.0195 19.2734 96.6914 19.5781H96.4102C95.8008 19.5781 95.2266 19.6953 94.6875 19.9297C94.1719 20.1641 93.6445 20.3867 93.1055 20.5977C92.8711 20.7148 92.6367 20.7969 92.4023 20.8438C92.168 20.8672 91.9219 20.9141 91.6641 20.9844C91.5469 21.0078 91.418 21.0781 91.2773 21.1953C91.1367 21.3125 91.0078 21.3945 90.8906 21.4414L90.293 21.582C90.1289 21.6289 90.0586 21.7344 90.082 21.8984C90.1055 22.0625 90.0469 22.168 89.9062 22.2148C89.7891 22.332 89.625 22.3906 89.4141 22.3906C89.2031 22.3672 89.0391 22.3555 88.9219 22.3555H88.7812C88.1953 22.7773 87.6328 23.1406 87.0938 23.4453C86.5312 23.7266 85.875 23.9141 85.125 24.0078L84.3516 24.5C84.0938 24.6641 83.8008 24.7461 83.4727 24.7461C83.2148 24.7461 83.0039 24.6992 82.8398 24.6055C82.6523 24.3242 82.5117 24.0078 82.418 23.6562C82.3008 23.3047 82.1133 23 81.8555 22.7422C81.9727 22.625 82.0547 22.4727 82.1016 22.2852C82.125 22.0742 82.1602 21.8867 82.207 21.7227C82.9102 21.418 83.625 21.125 84.3516 20.8438C85.0547 20.5625 85.7344 20.2227 86.3906 19.8242C86.4609 19.8477 86.5664 19.8594 86.707 19.8594C86.9414 19.8594 87.1523 19.8242 87.3398 19.7539C87.5273 19.6836 87.7148 19.6016 87.9023 19.5078C88.0898 19.4141 88.2773 19.332 88.4648 19.2617C88.6523 19.1914 88.875 19.168 89.1328 19.1914C89.9297 18.7461 90.7734 18.3828 91.6641 18.1016C92.5547 17.8203 93.3984 17.4336 94.1953 16.9414C94.3125 16.9414 94.4062 16.9648 94.4766 17.0117C94.5703 17.0586 94.6641 17.082 94.7578 17.082C94.8516 17.082 94.9102 17.0703 94.9336 17.0469C95.0742 16.8594 95.2617 16.7305 95.4961 16.6602C95.7305 16.5664 95.9648 16.4961 96.1992 16.4492C96.457 16.3789 96.6914 16.2969 96.9023 16.2031C97.1367 16.0859 97.2891 15.9102 97.3594 15.6758C97.4766 15.7695 97.6523 15.8164 97.8867 15.8164C98.2852 15.8164 98.6484 15.7344 98.9766 15.5703C99.3281 15.4063 99.7031 15.3242 100.102 15.3242C100.195 15.3242 100.277 15.3477 100.348 15.3945C100.441 15.418 100.535 15.4297 100.629 15.4297C100.816 15.4297 100.91 15.3711 100.91 15.2539C100.934 15.1367 101.004 15.0312 101.121 14.9375C102.551 14.6797 103.969 14.4453 105.375 14.2344C106.805 14.0234 108.246 13.918 109.699 13.918C109.91 13.7773 110.145 13.707 110.402 13.707C110.66 13.707 110.895 13.7773 111.105 13.918C111.504 13.8711 111.902 13.8359 112.301 13.8125C112.699 13.7891 113.098 13.7773 113.496 13.7773C114.41 13.7773 115.348 13.8359 116.309 13.9531C117.27 14.0703 118.219 14.2578 119.156 14.5156C120.117 14.75 121.031 15.0781 121.898 15.5C122.766 15.8984 123.574 16.3789 124.324 16.9414C124.395 17.1523 124.488 17.3633 124.605 17.5742C124.723 17.7852 124.875 17.9492 125.062 18.0664C125.062 18.1133 125.051 18.1484 125.027 18.1719C125.027 18.1953 125.027 18.2305 125.027 18.2773C125.027 18.5352 125.098 18.7812 125.238 19.0156C125.402 19.25 125.484 19.5312 125.484 19.8594C125.484 20.1875 125.426 20.5156 125.309 20.8438C125.215 21.1719 125.18 21.5 125.203 21.8281C124.945 22.2031 124.723 22.543 124.535 22.8477C124.371 23.1523 124.266 23.5391 124.219 24.0078C123.797 24.4297 123.422 24.8984 123.094 25.4141C122.766 25.9062 122.426 26.3984 122.074 26.8906C121.746 27.3594 121.371 27.793 120.949 28.1914C120.527 28.5898 120.023 28.9062 119.438 29.1406C119.414 29.375 119.32 29.6328 119.156 29.9141H118.418C118.348 30.1016 118.23 30.2422 118.066 30.3359L117.574 30.6172C117.41 30.7109 117.27 30.8281 117.152 30.9688C117.059 31.1094 117.012 31.3086 117.012 31.5664C116.965 31.543 116.906 31.5312 116.836 31.5312C116.602 31.5312 116.32 31.6484 115.992 31.8828C115.688 32.1172 115.441 32.3047 115.254 32.4453C114.855 32.7266 114.445 32.9844 114.023 33.2188C113.625 33.4531 113.273 33.7812 112.969 34.2031C112.031 34.6016 111.141 35.0703 110.297 35.6094C109.453 36.125 108.539 36.5352 107.555 36.8398C107.18 37.2383 106.734 37.5547 106.219 37.7891C105.727 38 105.246 38.2344 104.777 38.4922V38.5977C104.777 38.7852 104.848 38.9727 104.988 39.1602C105.129 39.3242 105.293 39.4766 105.48 39.6172C105.668 39.7344 105.867 39.8164 106.078 39.8633C106.312 39.9102 106.512 39.9102 106.676 39.8633C107.145 40.2852 107.684 40.625 108.293 40.8828C108.902 41.1406 109.535 41.375 110.191 41.5859C110.848 41.7969 111.492 42.0195 112.125 42.2539C112.758 42.4883 113.344 42.7812 113.883 43.1328H114.727C115.266 43.6016 115.898 43.9531 116.625 44.1875C117.375 44.4219 118.09 44.6328 118.77 44.8203C119.051 45.0781 119.402 45.2773 119.824 45.418C120.27 45.5352 120.691 45.5938 121.09 45.5938H121.301C121.395 45.5938 121.477 45.582 121.547 45.5586V45.6289C121.547 45.7461 121.582 45.8281 121.652 45.875C121.723 45.8984 121.793 45.9219 121.863 45.9453C121.957 45.9453 122.039 45.9688 122.109 46.0156C122.203 46.0391 122.273 46.0859 122.32 46.1562H122.672C123.164 46.1562 123.633 46.2617 124.078 46.4727C124.523 46.6602 124.992 46.7539 125.484 46.7539C125.695 46.7539 125.859 46.7305 125.977 46.6836C126.117 46.7305 126.223 46.8242 126.293 46.9648C126.363 47.1055 126.457 47.2227 126.574 47.3164C126.738 47.293 126.891 47.2695 127.031 47.2461C127.172 47.2461 127.312 47.2461 127.453 47.2461C127.969 47.2461 128.449 47.3047 128.895 47.4219C129.34 47.5391 129.797 47.7148 130.266 47.9492C131.016 47.6211 131.754 47.3516 132.48 47.1406C133.207 46.9297 133.98 46.8242 134.801 46.8242V46.8945C134.801 47.1758 134.871 47.4336 135.012 47.668C135.176 47.9258 135.316 48.1836 135.434 48.4414ZM121.969 20.3867C121.969 20.1055 121.91 19.8828 121.793 19.7188C121.699 19.5547 121.57 19.4141 121.406 19.2969C121.242 19.1562 121.066 19.0273 120.879 18.9102C120.715 18.793 120.562 18.6406 120.422 18.4531C119.812 18.2656 119.215 18.0547 118.629 17.8203C118.043 17.5859 117.445 17.3867 116.836 17.2227C116.531 17.1523 116.227 17.0938 115.922 17.0469C115.617 16.9766 115.312 16.9414 115.008 16.9414H114.234C114.094 16.918 113.941 16.8945 113.777 16.8711C113.637 16.8242 113.496 16.7891 113.355 16.7656C113.027 16.7188 112.699 16.6836 112.371 16.6602C112.066 16.6367 111.75 16.625 111.422 16.625C110.812 16.625 110.203 16.6484 109.594 16.6953L107.766 16.8359C107.508 16.8594 107.238 16.8711 106.957 16.8711C106.676 16.8711 106.418 16.8945 106.184 16.9414C106.066 16.9648 105.902 17.0234 105.691 17.1172C105.48 17.1875 105.258 17.2695 105.023 17.3633C104.789 17.4336 104.555 17.5156 104.32 17.6094C104.109 17.7031 103.922 17.7734 103.758 17.8203C103.781 17.9844 103.793 18.1484 103.793 18.3125V18.7695C103.793 19.1211 103.781 19.4727 103.758 19.8242C103.734 20.1758 103.688 20.5273 103.617 20.8789C103.594 21.0195 103.559 21.1602 103.512 21.3008C103.465 21.4414 103.43 21.582 103.406 21.7227C103.359 21.9336 103.336 22.168 103.336 22.4258V23.0938C103.289 23.6328 103.254 24.1602 103.23 24.6758C103.207 25.1914 103.172 25.7188 103.125 26.2578C102.984 27.8047 102.832 29.3398 102.668 30.8633C102.527 32.3867 102.434 33.9219 102.387 35.4688C103.16 35.3047 103.898 35.0586 104.602 34.7305C105.305 34.4023 105.996 34.0508 106.676 33.6758C107.355 33.2773 108.035 32.8906 108.715 32.5156C109.395 32.1406 110.109 31.8242 110.859 31.5664C111.047 31.3086 111.27 31.0977 111.527 30.9336C111.809 30.7695 112.043 30.5586 112.23 30.3008C112.465 30.3008 112.641 30.2539 112.758 30.1602C112.875 30.043 113.027 29.9609 113.215 29.9141C114.34 28.9297 115.488 28.0039 116.66 27.1367C117.832 26.2695 118.957 25.3438 120.035 24.3594C120.129 24.0312 120.281 23.7148 120.492 23.4102C120.727 23.082 120.949 22.7539 121.16 22.4258C121.371 22.0977 121.559 21.7695 121.723 21.4414C121.887 21.1133 121.969 20.7617 121.969 20.3867ZM146.398 26.6445C146.258 26.8555 146.176 27.0898 146.152 27.3477C146.129 27.6055 146.117 27.8398 146.117 28.0508C146.117 28.332 146.117 28.6133 146.117 28.8945C146.141 29.1523 146.152 29.4102 146.152 29.668V30.1953C146.105 30.3594 146.035 30.5234 145.941 30.6875C145.848 30.8516 145.777 31.0156 145.73 31.1797C145.402 32.0469 145.238 32.9141 145.238 33.7812V33.8516C145.121 34.1328 145.004 34.3906 144.887 34.625C144.793 34.8594 144.699 35.0938 144.605 35.3281C144.512 35.5391 144.441 35.7734 144.395 36.0312C144.348 36.2656 144.336 36.5469 144.359 36.875C144.031 37.6953 143.598 38.4453 143.059 39.125C142.52 39.7812 141.992 40.4609 141.477 41.1641C140.984 41.3516 140.527 41.5977 140.105 41.9023C139.707 42.207 139.32 42.5469 138.945 42.9219C138.219 43.1562 137.504 43.4258 136.801 43.7305C136.098 44.0352 135.465 44.4453 134.902 44.9609C134.457 45.0078 134.012 45.0781 133.566 45.1719C133.121 45.2656 132.688 45.4062 132.266 45.5938H131.844C131.633 45.5938 131.48 45.5469 131.387 45.4531C131.082 45.6172 130.766 45.7344 130.438 45.8047C130.109 45.8516 129.781 45.875 129.453 45.875C129.031 45.875 128.609 45.8516 128.188 45.8047C127.789 45.7344 127.379 45.6641 126.957 45.5938C126.723 45.2656 126.395 45.0195 125.973 44.8555C125.551 44.668 125.176 44.4922 124.848 44.3281C124.168 43.3906 123.676 42.4883 123.371 41.6211C123.066 40.7305 122.75 39.7344 122.422 38.6328C122.469 38.3047 122.551 37.9883 122.668 37.6836C122.785 37.3555 122.832 37.0039 122.809 36.6289C123.23 35.4102 123.781 34.3086 124.461 33.3242C125.164 32.3164 125.961 31.3555 126.852 30.4414C126.852 30.3008 126.875 30.1836 126.922 30.0898C126.992 29.9961 127.004 29.8555 126.957 29.668C126.98 29.6914 127.027 29.7031 127.098 29.7031C127.285 29.7031 127.402 29.6562 127.449 29.5625C127.496 29.4453 127.508 29.3164 127.484 29.1758C128.328 28.6367 129.09 28.0156 129.77 27.3125C130.473 26.6094 131.27 26.0234 132.16 25.5547C132.23 25.3438 132.348 25.168 132.512 25.0273C132.676 24.8867 132.805 24.7227 132.898 24.5352C133.648 24.3242 134.328 24.0078 134.938 23.5859C135.547 23.1641 136.191 22.7891 136.871 22.4609C137.246 22.25 137.598 22.1094 137.926 22.0391C138.277 21.9453 138.652 21.8516 139.051 21.7578C139.191 21.7109 139.32 21.6758 139.438 21.6523C139.555 21.6289 139.684 21.6172 139.824 21.6172C140.246 21.6172 140.656 21.6992 141.055 21.8633C141.453 22.0039 141.863 22.0742 142.285 22.0742C142.402 22.0742 142.496 22.0742 142.566 22.0742C142.66 22.0508 142.754 22.0273 142.848 22.0039C143.246 22.4961 143.75 22.8711 144.359 23.1289C144.5 23.4805 144.664 23.7852 144.852 24.043C145.062 24.3008 145.273 24.5586 145.484 24.8164C145.695 25.0508 145.883 25.3203 146.047 25.625C146.234 25.9062 146.352 26.2461 146.398 26.6445ZM142.883 28.4727C142.883 28.3555 142.871 28.25 142.848 28.1562C142.613 28.0859 142.391 27.9922 142.18 27.875C141.969 27.7578 141.734 27.6992 141.477 27.6992C141.312 27.6992 141.148 27.7344 140.984 27.8047C140.961 27.6406 140.891 27.5234 140.773 27.4531C140.68 27.3828 140.562 27.3242 140.422 27.2773C140.305 27.207 140.176 27.1602 140.035 27.1367C139.918 27.0898 139.812 27.0195 139.719 26.9258C139.648 26.7383 139.566 26.5508 139.473 26.3633C139.402 26.1523 139.262 26 139.051 25.9062C138.84 26.1172 138.594 26.293 138.312 26.4336C138.031 26.5508 137.738 26.668 137.434 26.7852C137.152 26.9023 136.871 27.043 136.59 27.207C136.332 27.3711 136.109 27.5703 135.922 27.8047H135.289C135.148 28.0625 134.949 28.2617 134.691 28.4023C134.434 28.5195 134.211 28.6953 134.023 28.9297C133.648 29.1172 133.297 29.3516 132.969 29.6328C132.664 29.8906 132.359 30.1719 132.055 30.4766C131.75 30.7578 131.445 31.0508 131.141 31.3555C130.859 31.6602 130.555 31.9414 130.227 32.1992C129.922 32.8555 129.582 33.4297 129.207 33.9219C128.855 34.3906 128.516 34.8711 128.188 35.3633C127.883 35.8555 127.613 36.3945 127.379 36.9805C127.168 37.543 127.062 38.2461 127.062 39.0898V39.4414C127.062 39.5586 127.074 39.6758 127.098 39.793C127.402 40.1211 127.648 40.4727 127.836 40.8477C128.047 41.2227 128.387 41.4922 128.855 41.6562C129.324 41.8438 129.816 41.9258 130.332 41.9023C130.871 41.8789 131.387 41.9375 131.879 42.0781C133.004 41.8672 134.082 41.5273 135.113 41.0586C136.168 40.5664 137.164 39.9805 138.102 39.3008C138.242 39.1836 138.406 39.0664 138.594 38.9492C138.781 38.8086 138.934 38.668 139.051 38.5273C139.168 38.4102 139.262 38.2812 139.332 38.1406C139.426 38 139.52 37.8711 139.613 37.7539C139.801 37.4492 140.012 37.1445 140.246 36.8398C140.48 36.5352 140.727 36.2539 140.984 35.9961C141.102 35.4805 141.254 34.9883 141.441 34.5195C141.629 34.0273 141.816 33.5469 142.004 33.0781C142.191 32.6094 142.344 32.1289 142.461 31.6367C142.602 31.1445 142.672 30.6289 142.672 30.0898C142.672 29.9727 142.66 29.8438 142.637 29.7031C142.637 29.5625 142.625 29.4336 142.602 29.3164C142.789 29.0586 142.883 28.7773 142.883 28.4727ZM182.395 42.5703C182.277 42.9453 182.242 43.3203 182.289 43.6953C182.219 43.7891 182.137 43.8477 182.043 43.8711C181.949 43.8945 181.855 43.9297 181.762 43.9766C181.668 44 181.586 44.0469 181.516 44.1172C181.469 44.1641 181.469 44.2695 181.516 44.4336C180.742 44.4805 180.004 44.6445 179.301 44.9258C178.598 45.207 177.906 45.5117 177.227 45.8398C176.875 45.7227 176.57 45.582 176.312 45.418C176.055 45.2539 175.727 45.1484 175.328 45.1016C174.93 44.3047 174.555 43.4727 174.203 42.6055C173.875 41.7148 173.711 40.8242 173.711 39.9336C173.711 39.2773 173.828 38.6797 174.062 38.1406C174.062 37.4375 174.121 36.7461 174.238 36.0664C174.355 35.3867 174.484 34.7188 174.625 34.0625C174.789 33.3828 174.93 32.7031 175.047 32.0234C175.164 31.3438 175.223 30.6523 175.223 29.9492V29.1758C175.176 29.1758 175.117 29.2344 175.047 29.3516C174.977 29.4453 174.906 29.5625 174.836 29.7031C174.789 29.8203 174.742 29.9375 174.695 30.0547C174.648 30.1719 174.613 30.2422 174.59 30.2656C174.191 30.5703 173.875 30.957 173.641 31.4258C173.43 31.8711 173.195 32.293 172.938 32.6914C172.609 33.1836 172.258 33.6641 171.883 34.1328C171.531 34.6016 171.086 34.9648 170.547 35.2227V35.293C170.547 35.4102 170.512 35.4922 170.441 35.5391C170.371 35.5859 170.359 35.7031 170.406 35.8906C169.82 36.0781 169.27 36.3477 168.754 36.6992C168.262 37.0508 167.852 37.4961 167.523 38.0352C167.055 38.1523 166.609 38.3164 166.188 38.5273C165.789 38.7148 165.379 38.9258 164.957 39.1602C164.77 39.2539 164.57 39.3711 164.359 39.5117C164.148 39.6523 163.938 39.7461 163.727 39.793C163.539 39.8633 163.281 39.9102 162.953 39.9336C162.648 39.957 162.32 39.9805 161.969 40.0039C161.641 40.0273 161.312 40.0391 160.984 40.0391H160.211C160.094 40.0391 159.941 39.9805 159.754 39.8633C159.566 39.7461 159.355 39.6172 159.121 39.4766C158.91 39.3359 158.688 39.207 158.453 39.0898C158.219 38.9492 157.996 38.8555 157.785 38.8086C157.598 38.1992 157.328 37.6602 156.977 37.1914C156.648 36.6992 156.297 36.207 155.922 35.7148C155.805 35.1523 155.641 34.5664 155.43 33.957C155.242 33.3477 154.902 32.8438 154.41 32.4453C154.527 32.2812 154.586 32.0938 154.586 31.8828C154.586 31.625 154.527 31.3789 154.41 31.1445C154.293 30.9102 154.234 30.6523 154.234 30.3711C154.234 30.1836 154.246 30.043 154.27 29.9492C154.012 30.2305 153.824 30.5938 153.707 31.0391C153.613 31.4609 153.566 31.8477 153.566 32.1992C153.566 32.4805 153.602 32.7383 153.672 32.9727C153.438 33.3008 153.285 33.7109 153.215 34.2031C153.168 34.6953 153.145 35.1289 153.145 35.5039C153.145 35.9727 153.18 36.4297 153.25 36.875C152.875 37.25 152.688 37.707 152.688 38.2461C152.688 38.5508 152.758 38.8203 152.898 39.0547C152.898 39.1484 152.875 39.2188 152.828 39.2656C152.781 39.3125 152.723 39.3477 152.652 39.3711C152.605 39.3945 152.547 39.4297 152.477 39.4766C152.43 39.5 152.406 39.5586 152.406 39.6523C152.406 39.7695 152.406 39.8984 152.406 40.0391C152.43 40.1797 152.441 40.3203 152.441 40.4609C152.441 40.7891 152.43 41.1289 152.406 41.4805C152.383 41.832 152.371 42.1719 152.371 42.5C152.371 43.1797 152.43 43.6719 152.547 43.9766C152.688 44.2578 152.852 44.4688 153.039 44.6094C153.25 44.75 153.473 44.8906 153.707 45.0312C153.941 45.1719 154.176 45.4414 154.41 45.8398C154.34 46.0508 154.211 46.2266 154.023 46.3672C153.859 46.4844 153.695 46.6133 153.531 46.7539C153.391 46.8711 153.262 47.0117 153.145 47.1758C153.027 47.3398 152.98 47.5742 153.004 47.8789H152.828C152.523 47.8789 152.23 47.9258 151.949 48.0195C151.668 48.1133 151.375 48.1602 151.07 48.1602C151 48.1602 150.93 48.1484 150.859 48.125C150.789 48.125 150.719 48.125 150.648 48.125L150.297 47.9141C150.18 47.8438 150.062 47.8086 149.945 47.8086C149.828 47.8086 149.676 47.832 149.488 47.8789C149.16 46.8242 148.902 45.7344 148.715 44.6094C148.551 43.4844 148.469 42.3828 148.469 41.3047C148.469 41.1875 148.492 41.0703 148.539 40.9531C148.609 40.8125 148.703 40.7656 148.82 40.8125V40.1445C148.82 39.418 148.879 38.7148 148.996 38.0352C149.137 37.332 149.207 36.6055 149.207 35.8555C149.207 35.6445 149.195 35.4336 149.172 35.2227C149.172 35.0117 149.16 34.8125 149.137 34.625C149.254 34.2266 149.371 33.8281 149.488 33.4297C149.629 33.0078 149.699 32.5742 149.699 32.1289C149.699 31.9414 149.664 31.7188 149.594 31.4609C149.781 31.3203 149.922 31.1445 150.016 30.9336C150.109 30.6992 150.18 30.4531 150.227 30.1953C150.273 29.9141 150.309 29.6445 150.332 29.3867C150.355 29.1289 150.379 28.8945 150.402 28.6836C150.637 28.2148 150.766 27.7109 150.789 27.1719C150.812 26.6328 150.93 26.1289 151.141 25.6602C151.117 25.5664 151.105 25.4023 151.105 25.168C151.105 24.6992 151.176 24.2305 151.316 23.7617C151.48 23.2695 151.797 22.8945 152.266 22.6367C152.688 22.8008 153.18 22.8828 153.742 22.8828C154.281 22.8828 154.797 22.8008 155.289 22.6367C155.43 22.6836 155.559 22.7422 155.676 22.8125C155.793 22.8594 155.91 22.918 156.027 22.9883C156.168 23.0352 156.309 23.082 156.449 23.1289C156.59 23.1523 156.754 23.1523 156.941 23.1289C157.176 23.8086 157.375 24.5 157.539 25.2031C157.727 25.9062 157.867 26.6211 157.961 27.3477C158.008 27.6523 158.02 27.9805 157.996 28.332C157.996 28.6836 158.02 29.0117 158.066 29.3164C158.09 29.5039 158.148 29.6797 158.242 29.8438C158.336 29.9844 158.43 30.1484 158.523 30.3359C158.617 30.5234 158.688 30.7344 158.734 30.9688C158.805 31.2031 158.828 31.4961 158.805 31.8477C159.062 32.457 159.344 33.043 159.648 33.6055C159.977 34.1445 160.328 34.6836 160.703 35.2227C160.914 35.293 161.102 35.3867 161.266 35.5039C161.43 35.5977 161.535 35.7617 161.582 35.9961C161.793 35.9961 161.98 36.0312 162.145 36.1016L162.742 36.2773C163.633 35.9961 164.453 35.6211 165.203 35.1523C165.977 34.6836 166.785 34.2852 167.629 33.957C168.66 32.9492 169.551 31.8359 170.301 30.6172C171.051 29.375 171.801 28.1445 172.551 26.9258V26.1523C172.691 26.082 172.809 26 172.902 25.9062C173.02 25.7891 173.16 25.707 173.324 25.6602C173.348 25.3789 173.406 25.1094 173.5 24.8516C173.617 24.5703 173.734 24.3125 173.852 24.0781C173.992 23.8203 174.109 23.5742 174.203 23.3398C174.297 23.082 174.344 22.8125 174.344 22.5312C174.344 22.3672 174.332 22.2266 174.309 22.1094C174.66 21.7578 175.082 21.582 175.574 21.582C176.043 21.582 176.512 21.6992 176.98 21.9336C177.473 22.1445 177.93 22.3438 178.352 22.5312C178.609 23.0938 178.797 23.6914 178.914 24.3242C179.055 24.9336 179.148 25.5664 179.195 26.2227C179.242 26.8789 179.266 27.5352 179.266 28.1914V30.6875C179.242 30.875 179.172 31.0156 179.055 31.1094C178.961 31.1797 178.891 31.2969 178.844 31.4609V31.8125C178.844 31.9297 178.832 32.0469 178.809 32.1641C178.809 32.6562 178.75 33.1719 178.633 33.7109C178.516 34.3906 178.363 35.082 178.176 35.7852C178.012 36.4648 177.93 37.1562 177.93 37.8594C177.93 38.1172 177.941 38.375 177.965 38.6328C177.988 38.8906 178.035 39.1484 178.105 39.4062C177.988 39.6172 177.93 39.8867 177.93 40.2148C177.93 40.5898 177.988 40.9414 178.105 41.2695C178.246 41.5742 178.41 41.8789 178.598 42.1836C178.926 42.1836 179.254 42.1719 179.582 42.1484C179.91 42.125 180.25 42.1133 180.602 42.1133C180.93 42.1133 181.234 42.1484 181.516 42.2188C181.797 42.2656 182.09 42.3828 182.395 42.5703ZM190.898 42.1836C190.781 42.3711 190.641 42.5469 190.477 42.7109C190.312 42.8516 190.16 43.0039 190.02 43.168C189.855 43.2383 189.668 43.2734 189.457 43.2734C189.27 43.2734 189.082 43.2734 188.895 43.2734C188.73 43.25 188.566 43.25 188.402 43.2734C188.262 43.2734 188.145 43.3203 188.051 43.4141C187.863 43.3672 187.723 43.2852 187.629 43.168C187.535 43.0273 187.371 42.9453 187.137 42.9219C187.043 42.8984 186.949 42.8984 186.855 42.9219C186.504 42.5234 186.176 42.1016 185.871 41.6562C185.59 41.2109 185.32 40.7891 185.062 40.3906C185.039 39.5234 184.969 38.6445 184.852 37.7539C184.828 37.543 184.793 37.332 184.746 37.1211C184.699 36.9102 184.664 36.7109 184.641 36.5234C184.641 36.2891 184.652 36.0664 184.676 35.8555C184.723 35.6211 184.758 35.4102 184.781 35.2227C184.875 34.543 184.98 33.875 185.098 33.2188C185.215 32.5625 185.32 31.8945 185.414 31.2148C185.508 30.6055 185.555 29.9727 185.555 29.3164C185.555 28.6367 185.449 28.0039 185.238 27.418L185.203 27.2422C185.25 27.0547 185.297 26.9023 185.344 26.7852C185.414 26.6445 185.461 26.4922 185.484 26.3281C185.531 26.0703 185.473 25.8828 185.309 25.7656C185.379 25.5781 185.496 25.4609 185.66 25.4141C185.824 25.3438 185.918 25.2031 185.941 24.9922C185.965 24.8984 185.965 24.8047 185.941 24.7109C186.129 24.6406 186.316 24.582 186.504 24.5352C186.715 24.4648 186.914 24.4531 187.102 24.5C187.406 24.5469 187.676 24.6523 187.91 24.8164C188.145 24.957 188.367 25.1211 188.578 25.3086C188.953 26.4336 189.105 27.6289 189.035 28.8945C188.965 30.1367 188.848 31.3906 188.684 32.6562C188.52 33.9219 188.414 35.1641 188.367 36.3828C188.32 37.5781 188.508 38.6914 188.93 39.7227L189 39.7578C189.117 39.7812 189.211 39.7461 189.281 39.6523C189.352 39.5352 189.445 39.4883 189.562 39.5117C189.656 39.5586 189.715 39.582 189.738 39.582C189.832 40.0508 189.984 40.4961 190.195 40.918C190.406 41.3398 190.641 41.7617 190.898 42.1836ZM220.355 40.6719C220.355 40.9062 220.285 41.1055 220.145 41.2695C220.027 41.4102 219.875 41.5391 219.688 41.6562C219.523 41.7734 219.348 41.8789 219.16 41.9727C218.996 42.0664 218.844 42.1836 218.703 42.3242C218.609 42.418 218.539 42.5352 218.492 42.6758C218.469 42.793 218.41 42.875 218.316 42.9219C218.176 43.0391 218.023 43.1094 217.859 43.1328C217.695 43.1562 217.52 43.1914 217.332 43.2383C217.168 43.2617 217.004 43.3086 216.84 43.3789C216.676 43.4258 216.535 43.5312 216.418 43.6953C215.316 43.8125 214.227 43.9648 213.148 44.1523C212.094 44.3398 211.004 44.4336 209.879 44.4336C209.668 44.4336 209.434 44.457 209.176 44.5039C208.941 44.5273 208.719 44.5508 208.508 44.5742C208.016 44.6211 207.523 44.6562 207.031 44.6797C206.562 44.7031 206.082 44.7148 205.59 44.7148C204.91 44.7148 204.23 44.6914 203.551 44.6445C202.871 44.5742 202.203 44.4688 201.547 44.3281C201.383 44.2109 201.195 44.1172 200.984 44.0469C200.773 43.9766 200.551 43.9062 200.316 43.8359C200.105 43.7656 199.906 43.6836 199.719 43.5898C199.531 43.4961 199.391 43.3555 199.297 43.168C198.945 43.1445 198.629 43.0742 198.348 42.957C198.09 42.8398 197.844 42.7109 197.609 42.5703C197.398 42.4062 197.176 42.2422 196.941 42.0781C196.707 41.9141 196.438 41.7734 196.133 41.6562C195.898 41.3281 195.652 41.0117 195.395 40.707C195.16 40.3789 194.867 40.1094 194.516 39.8984C194.445 39.4531 194.328 39.0078 194.164 38.5625C194.023 38.1172 193.871 37.6836 193.707 37.2617C193.566 36.8164 193.449 36.3711 193.355 35.9258C193.238 35.4805 193.18 35.0234 193.18 34.5547C193.18 34.2266 193.227 33.8281 193.32 33.3594C193.414 32.8906 193.531 32.4219 193.672 31.9531C193.836 31.4609 194.023 31.0039 194.234 30.582C194.445 30.1602 194.656 29.8203 194.867 29.5625C194.938 29.4922 195.02 29.4336 195.113 29.3867C195.207 29.3398 195.289 29.2695 195.359 29.1758C195.57 28.9414 195.793 28.7539 196.027 28.6133C196.262 28.4492 196.508 28.2617 196.766 28.0508C196.859 27.957 196.93 27.8516 196.977 27.7344C197.047 27.6172 197.141 27.5117 197.258 27.418C197.328 27.3711 197.422 27.3594 197.539 27.3828C197.68 27.4062 197.797 27.3828 197.891 27.3125C197.984 27.2422 198.031 27.1602 198.031 27.0664C198.031 26.9727 198.066 26.8906 198.137 26.8203C198.16 26.7969 198.23 26.7969 198.348 26.8203C198.465 26.8203 198.535 26.8203 198.559 26.8203C198.723 26.8203 198.91 26.7148 199.121 26.5039C199.332 26.2695 199.508 26.1172 199.648 26.0469C199.812 25.9531 199.977 25.8945 200.141 25.8711C200.305 25.8242 200.48 25.7539 200.668 25.6602C200.926 25.5195 201.172 25.4141 201.406 25.3438C201.664 25.25 201.922 25.1445 202.18 25.0273C202.32 24.9805 202.449 24.8984 202.566 24.7812C202.684 24.6641 202.801 24.582 202.918 24.5352C203.129 24.4648 203.352 24.418 203.586 24.3945C203.844 24.3477 204.078 24.3125 204.289 24.2891C204.523 24.2422 204.746 24.1953 204.957 24.1484C205.191 24.0781 205.402 23.9609 205.59 23.7969H205.871C206.293 23.7969 206.703 23.7383 207.102 23.6211C207.5 23.5039 207.91 23.4453 208.332 23.4453C208.449 23.4453 208.625 23.4688 208.859 23.5156C209.047 23.3984 209.258 23.3398 209.492 23.3398C209.891 23.3398 210.289 23.4453 210.688 23.6562C211.086 23.8438 211.496 23.9375 211.918 23.9375H212.129C212.223 23.9375 212.316 23.9258 212.41 23.9023C212.668 24.1602 212.973 24.3008 213.324 24.3242C213.699 24.3477 214.016 24.4531 214.273 24.6406C214.438 24.7812 214.566 24.9453 214.66 25.1328C214.777 25.3203 214.871 25.5195 214.941 25.7305L215.152 26.3633C215.223 26.5742 215.316 26.7617 215.434 26.9258C215.316 27.7695 214.965 28.4492 214.379 28.9648C213.816 29.457 213.102 29.7031 212.234 29.7031C211.906 29.7031 211.625 29.668 211.391 29.5977C211.18 29.5039 210.98 29.4102 210.793 29.3164C210.629 29.2227 210.453 29.1289 210.266 29.0352C210.078 28.9414 209.867 28.8711 209.633 28.8242C209.891 28.3555 210.055 27.8516 210.125 27.3125C209.867 27.1953 209.609 27.1133 209.352 27.0664C209.094 27.0195 208.848 26.9375 208.613 26.8203C207.98 26.9844 207.359 27.1016 206.75 27.1719C206.164 27.2188 205.613 27.4648 205.098 27.9102C204.98 27.8867 204.852 27.8633 204.711 27.8398C204.594 27.8164 204.477 27.8047 204.359 27.8047C204.219 27.8047 203.938 27.9102 203.516 28.1211C203.094 28.3086 202.637 28.5312 202.145 28.7891C201.676 29.0469 201.219 29.3047 200.773 29.5625C200.352 29.8203 200.059 29.9961 199.895 30.0898C199.707 30.207 199.543 30.3477 199.402 30.5117C199.262 30.6758 199.121 30.8516 198.98 31.0391C198.84 31.2031 198.699 31.3672 198.559 31.5312C198.418 31.6719 198.242 31.7773 198.031 31.8477C197.984 32.1055 197.902 32.3281 197.785 32.5156C197.668 32.7031 197.539 32.9023 197.398 33.1133C197.375 33.5352 197.328 33.957 197.258 34.3789C197.211 34.8008 197.188 35.2227 197.188 35.6445V36.1016C197.188 36.2422 197.211 36.3711 197.258 36.4883C197.492 36.793 197.68 37.1328 197.82 37.5078C197.984 37.8828 198.254 38.1406 198.629 38.2812C198.652 38.375 198.641 38.4336 198.594 38.457C198.57 38.4805 198.547 38.5391 198.523 38.6328C198.664 38.8906 198.84 39.1016 199.051 39.2656C199.285 39.4062 199.52 39.5586 199.754 39.7227C199.988 39.8633 200.211 40.0156 200.422 40.1797C200.633 40.3438 200.797 40.5547 200.914 40.8125C201.266 40.8125 201.594 40.8711 201.898 40.9883C202.227 41.1055 202.531 41.2344 202.812 41.375C203.117 41.5156 203.398 41.6445 203.656 41.7617C203.938 41.8789 204.219 41.9375 204.5 41.9375C204.758 41.9375 204.992 41.9023 205.203 41.832C205.812 42.0195 206.422 42.1602 207.031 42.2539C207.664 42.3242 208.297 42.3594 208.93 42.3594C209.703 42.3594 210.477 42.3125 211.25 42.2188C212.023 42.125 212.797 42.043 213.57 41.9727C213.852 41.9258 214.121 41.9023 214.379 41.9023C214.637 41.9023 214.895 41.8789 215.152 41.832C215.48 41.7852 215.785 41.6328 216.066 41.375C216.371 41.1172 216.664 40.9297 216.945 40.8125C217.203 40.9766 217.508 41.0586 217.859 41.0586C218.258 41.0586 218.645 41 219.02 40.8828C219.395 40.7422 219.781 40.6719 220.18 40.6719H220.355ZM248.863 24.2891C248.863 24.4297 248.793 24.5469 248.652 24.6406C248.535 24.7344 248.395 24.8281 248.23 24.9219C248.09 25.0156 247.938 25.1211 247.773 25.2383C247.633 25.3555 247.539 25.4961 247.492 25.6602H247.176C247.035 25.6602 246.965 25.707 246.965 25.8008H246.859C246.648 25.8008 246.508 25.7422 246.438 25.625C246.367 25.4844 246.215 25.4141 245.98 25.4141C245.395 25.4141 244.809 25.4258 244.223 25.4492C243.66 25.4492 243.086 25.4609 242.5 25.4844C240.883 25.4844 239.289 25.543 237.719 25.6602C236.172 25.7539 234.637 26.082 233.113 26.6445C233.066 26.668 233.008 26.6797 232.938 26.6797C232.82 26.6797 232.75 26.6328 232.727 26.5391C232.727 26.4453 232.668 26.3984 232.551 26.3984C232.223 26.3984 231.918 26.4336 231.637 26.5039C231.355 26.5742 231.051 26.6211 230.723 26.6445C230.348 26.9727 229.914 27.2422 229.422 27.4531C228.953 27.6641 228.461 27.875 227.945 28.0859C227.453 28.2734 226.973 28.4844 226.504 28.7188C226.035 28.9297 225.625 29.2109 225.273 29.5625C225.32 29.8438 225.355 30.125 225.379 30.4062C225.426 30.6641 225.449 30.9219 225.449 31.1797C225.449 32.1875 225.355 33.1836 225.168 34.168C224.98 35.1289 224.887 36.1016 224.887 37.0859V37.6133C224.887 37.7773 224.898 37.9531 224.922 38.1406C224.969 38.2578 225.051 38.3398 225.168 38.3867C225.309 38.4102 225.426 38.457 225.52 38.5273C225.824 38.3164 226.129 38.1523 226.434 38.0352C226.762 37.8945 227.09 37.7656 227.418 37.6484C227.77 37.5078 228.098 37.3789 228.402 37.2617C228.73 37.1211 229.047 36.957 229.352 36.7695H230.336C230.594 36.582 230.898 36.4414 231.25 36.3477C231.602 36.2539 231.836 36.043 231.953 35.7148C232 35.7617 232.047 35.7852 232.094 35.7852H232.234C232.516 35.7852 232.797 35.7266 233.078 35.6094C233.383 35.4922 233.688 35.375 233.992 35.2578C234.297 35.1172 234.602 34.9883 234.906 34.8711C235.211 34.7539 235.527 34.6953 235.855 34.6953C235.926 34.6953 235.984 34.707 236.031 34.7305C236.102 34.7305 236.172 34.7305 236.242 34.7305C236.383 34.4961 236.582 34.3203 236.84 34.2031C237.098 34.0625 237.367 33.9453 237.648 33.8516C237.93 33.7578 238.211 33.6641 238.492 33.5703C238.797 33.4766 239.055 33.3594 239.266 33.2188H239.406C239.547 33.2188 239.652 33.2539 239.723 33.3242C239.816 33.3711 239.922 33.418 240.039 33.4648C240.695 33.043 241.363 32.832 242.043 32.832C242.746 32.8086 243.473 32.7617 244.223 32.6914C244.387 32.9727 244.527 33.207 244.645 33.3945C244.785 33.5586 244.855 33.8047 244.855 34.1328C244.855 34.2969 244.844 34.4141 244.82 34.4844C244.562 34.5781 244.363 34.6602 244.223 34.7305L243.836 34.9414C243.719 34.9883 243.578 35.0352 243.414 35.082C243.25 35.1055 243.016 35.1172 242.711 35.1172C242.523 35.1172 242.441 35.1758 242.465 35.293C242.488 35.3867 242.43 35.4453 242.289 35.4688C241.961 35.5859 241.633 35.6797 241.305 35.75C240.977 35.8203 240.648 35.9141 240.32 36.0312C239.641 36.2422 238.961 36.4766 238.281 36.7344C237.625 36.9688 236.945 37.1562 236.242 37.2969C235.656 37.7656 235.023 38.1523 234.344 38.457C233.664 38.7383 232.961 38.9727 232.234 39.1602C231.461 39.7227 230.699 40.25 229.949 40.7422C229.199 41.2109 228.355 41.6094 227.418 41.9375C227.301 42.0547 227.16 42.1602 226.996 42.2539C226.832 42.3477 226.727 42.4883 226.68 42.6758C226.633 42.6758 226.574 42.6758 226.504 42.6758C226.457 42.6523 226.398 42.6406 226.328 42.6406C226 42.6406 225.742 42.7227 225.555 42.8867C225.391 43.0273 225.18 43.1211 224.922 43.168C224.805 43.5195 224.746 43.8242 224.746 44.082C224.746 44.4102 224.805 44.7031 224.922 44.9609C225.039 45.2188 225.18 45.4648 225.344 45.6992C225.531 45.9336 225.719 46.168 225.906 46.4023C226.117 46.6133 226.293 46.8477 226.434 47.1055C226.387 47.3867 226.293 47.6094 226.152 47.7734C226.035 47.9609 225.895 48.125 225.73 48.2656C225.566 48.4297 225.402 48.5938 225.238 48.7578C225.098 48.9219 224.992 49.1328 224.922 49.3906C224.5 49.4609 224.09 49.4961 223.691 49.4961C223.434 49.4961 223.164 49.4609 222.883 49.3906C222.625 49.3438 222.379 49.25 222.145 49.1094C221.77 48.5938 221.5 48.043 221.336 47.457C221.195 46.8711 220.996 46.2852 220.738 45.6992L220.773 45.4531C220.773 44.9375 220.68 44.4922 220.492 44.1172C220.328 43.7188 220.07 43.3203 219.719 42.9219C219.742 42.875 219.754 42.793 219.754 42.6758C219.754 42.3711 219.66 42.0898 219.473 41.832C219.52 41.293 219.66 40.8711 219.895 40.5664C220.152 40.2617 220.434 39.9219 220.738 39.5469V39.125C220.738 38.1172 220.82 37.1328 220.984 36.1719C221.172 35.1875 221.266 34.2031 221.266 33.2188C221.266 32.6094 221.219 32.0703 221.125 31.6016C221.055 31.5781 220.961 31.5664 220.844 31.5664C220.727 31.5664 220.633 31.6016 220.562 31.6719C220.492 31.7188 220.434 31.7773 220.387 31.8477C220.34 31.918 220.281 31.9883 220.211 32.0586C220.164 32.1289 220.082 32.1758 219.965 32.1992C219.566 32.1289 219.309 31.9414 219.191 31.6367C219.074 31.332 219.016 30.9922 219.016 30.6172C219.016 30.4062 219.027 30.1953 219.051 29.9844C219.074 29.7734 219.098 29.5508 219.121 29.3164C220.012 28.332 221.078 27.418 222.32 26.5742C223.562 25.7305 224.793 25.0508 226.012 24.5352C226.082 24.5117 226.164 24.5 226.258 24.5C226.352 24.5 226.434 24.5234 226.504 24.5703C226.574 24.5938 226.656 24.6055 226.75 24.6055C226.82 24.6055 226.879 24.582 226.926 24.5352C227.16 24.5352 227.324 24.4648 227.418 24.3242C227.512 24.1836 227.641 24.043 227.805 23.9023C227.969 24.0195 228.109 24.0781 228.227 24.0781C228.461 24.0781 228.695 23.9727 228.93 23.7617C229.164 23.5508 229.422 23.4219 229.703 23.375C230.781 23.1875 231.836 23.0352 232.867 22.918C233.922 22.8008 234.965 22.5312 235.996 22.1094C236.23 22.2266 236.465 22.2969 236.699 22.3203C236.934 22.3438 237.168 22.3555 237.402 22.3555C237.66 22.3555 237.941 22.332 238.246 22.2852C238.574 22.2148 238.832 22.0742 239.02 21.8633C239.77 21.957 240.566 21.9922 241.41 21.9688C242.277 21.9453 243.133 21.957 243.977 22.0039C244.844 22.0508 245.676 22.168 246.473 22.3555C247.27 22.543 247.973 22.8828 248.582 23.375C248.629 23.5391 248.688 23.6914 248.758 23.832C248.828 23.9727 248.863 24.125 248.863 24.2891ZM268.793 26.6445C268.652 26.8555 268.57 27.0898 268.547 27.3477C268.523 27.6055 268.512 27.8398 268.512 28.0508C268.512 28.332 268.512 28.6133 268.512 28.8945C268.535 29.1523 268.547 29.4102 268.547 29.668V30.1953C268.5 30.3594 268.43 30.5234 268.336 30.6875C268.242 30.8516 268.172 31.0156 268.125 31.1797C267.797 32.0469 267.633 32.9141 267.633 33.7812V33.8516C267.516 34.1328 267.398 34.3906 267.281 34.625C267.188 34.8594 267.094 35.0938 267 35.3281C266.906 35.5391 266.836 35.7734 266.789 36.0312C266.742 36.2656 266.73 36.5469 266.754 36.875C266.426 37.6953 265.992 38.4453 265.453 39.125C264.914 39.7812 264.387 40.4609 263.871 41.1641C263.379 41.3516 262.922 41.5977 262.5 41.9023C262.102 42.207 261.715 42.5469 261.34 42.9219C260.613 43.1562 259.898 43.4258 259.195 43.7305C258.492 44.0352 257.859 44.4453 257.297 44.9609C256.852 45.0078 256.406 45.0781 255.961 45.1719C255.516 45.2656 255.082 45.4062 254.66 45.5938H254.238C254.027 45.5938 253.875 45.5469 253.781 45.4531C253.477 45.6172 253.16 45.7344 252.832 45.8047C252.504 45.8516 252.176 45.875 251.848 45.875C251.426 45.875 251.004 45.8516 250.582 45.8047C250.184 45.7344 249.773 45.6641 249.352 45.5938C249.117 45.2656 248.789 45.0195 248.367 44.8555C247.945 44.668 247.57 44.4922 247.242 44.3281C246.562 43.3906 246.07 42.4883 245.766 41.6211C245.461 40.7305 245.145 39.7344 244.816 38.6328C244.863 38.3047 244.945 37.9883 245.062 37.6836C245.18 37.3555 245.227 37.0039 245.203 36.6289C245.625 35.4102 246.176 34.3086 246.855 33.3242C247.559 32.3164 248.355 31.3555 249.246 30.4414C249.246 30.3008 249.27 30.1836 249.316 30.0898C249.387 29.9961 249.398 29.8555 249.352 29.668C249.375 29.6914 249.422 29.7031 249.492 29.7031C249.68 29.7031 249.797 29.6562 249.844 29.5625C249.891 29.4453 249.902 29.3164 249.879 29.1758C250.723 28.6367 251.484 28.0156 252.164 27.3125C252.867 26.6094 253.664 26.0234 254.555 25.5547C254.625 25.3438 254.742 25.168 254.906 25.0273C255.07 24.8867 255.199 24.7227 255.293 24.5352C256.043 24.3242 256.723 24.0078 257.332 23.5859C257.941 23.1641 258.586 22.7891 259.266 22.4609C259.641 22.25 259.992 22.1094 260.32 22.0391C260.672 21.9453 261.047 21.8516 261.445 21.7578C261.586 21.7109 261.715 21.6758 261.832 21.6523C261.949 21.6289 262.078 21.6172 262.219 21.6172C262.641 21.6172 263.051 21.6992 263.449 21.8633C263.848 22.0039 264.258 22.0742 264.68 22.0742C264.797 22.0742 264.891 22.0742 264.961 22.0742C265.055 22.0508 265.148 22.0273 265.242 22.0039C265.641 22.4961 266.145 22.8711 266.754 23.1289C266.895 23.4805 267.059 23.7852 267.246 24.043C267.457 24.3008 267.668 24.5586 267.879 24.8164C268.09 25.0508 268.277 25.3203 268.441 25.625C268.629 25.9062 268.746 26.2461 268.793 26.6445ZM265.277 28.4727C265.277 28.3555 265.266 28.25 265.242 28.1562C265.008 28.0859 264.785 27.9922 264.574 27.875C264.363 27.7578 264.129 27.6992 263.871 27.6992C263.707 27.6992 263.543 27.7344 263.379 27.8047C263.355 27.6406 263.285 27.5234 263.168 27.4531C263.074 27.3828 262.957 27.3242 262.816 27.2773C262.699 27.207 262.57 27.1602 262.43 27.1367C262.312 27.0898 262.207 27.0195 262.113 26.9258C262.043 26.7383 261.961 26.5508 261.867 26.3633C261.797 26.1523 261.656 26 261.445 25.9062C261.234 26.1172 260.988 26.293 260.707 26.4336C260.426 26.5508 260.133 26.668 259.828 26.7852C259.547 26.9023 259.266 27.043 258.984 27.207C258.727 27.3711 258.504 27.5703 258.316 27.8047H257.684C257.543 28.0625 257.344 28.2617 257.086 28.4023C256.828 28.5195 256.605 28.6953 256.418 28.9297C256.043 29.1172 255.691 29.3516 255.363 29.6328C255.059 29.8906 254.754 30.1719 254.449 30.4766C254.145 30.7578 253.84 31.0508 253.535 31.3555C253.254 31.6602 252.949 31.9414 252.621 32.1992C252.316 32.8555 251.977 33.4297 251.602 33.9219C251.25 34.3906 250.91 34.8711 250.582 35.3633C250.277 35.8555 250.008 36.3945 249.773 36.9805C249.562 37.543 249.457 38.2461 249.457 39.0898V39.4414C249.457 39.5586 249.469 39.6758 249.492 39.793C249.797 40.1211 250.043 40.4727 250.23 40.8477C250.441 41.2227 250.781 41.4922 251.25 41.6562C251.719 41.8438 252.211 41.9258 252.727 41.9023C253.266 41.8789 253.781 41.9375 254.273 42.0781C255.398 41.8672 256.477 41.5273 257.508 41.0586C258.562 40.5664 259.559 39.9805 260.496 39.3008C260.637 39.1836 260.801 39.0664 260.988 38.9492C261.176 38.8086 261.328 38.668 261.445 38.5273C261.562 38.4102 261.656 38.2812 261.727 38.1406C261.82 38 261.914 37.8711 262.008 37.7539C262.195 37.4492 262.406 37.1445 262.641 36.8398C262.875 36.5352 263.121 36.2539 263.379 35.9961C263.496 35.4805 263.648 34.9883 263.836 34.5195C264.023 34.0273 264.211 33.5469 264.398 33.0781C264.586 32.6094 264.738 32.1289 264.855 31.6367C264.996 31.1445 265.066 30.6289 265.066 30.0898C265.066 29.9727 265.055 29.8438 265.031 29.7031C265.031 29.5625 265.02 29.4336 264.996 29.3164C265.184 29.0586 265.277 28.7773 265.277 28.4727ZM293.223 26.6445C293.082 26.8555 293 27.0898 292.977 27.3477C292.953 27.6055 292.941 27.8398 292.941 28.0508C292.941 28.332 292.941 28.6133 292.941 28.8945C292.965 29.1523 292.977 29.4102 292.977 29.668V30.1953C292.93 30.3594 292.859 30.5234 292.766 30.6875C292.672 30.8516 292.602 31.0156 292.555 31.1797C292.227 32.0469 292.062 32.9141 292.062 33.7812V33.8516C291.945 34.1328 291.828 34.3906 291.711 34.625C291.617 34.8594 291.523 35.0938 291.43 35.3281C291.336 35.5391 291.266 35.7734 291.219 36.0312C291.172 36.2656 291.16 36.5469 291.184 36.875C290.855 37.6953 290.422 38.4453 289.883 39.125C289.344 39.7812 288.816 40.4609 288.301 41.1641C287.809 41.3516 287.352 41.5977 286.93 41.9023C286.531 42.207 286.145 42.5469 285.77 42.9219C285.043 43.1562 284.328 43.4258 283.625 43.7305C282.922 44.0352 282.289 44.4453 281.727 44.9609C281.281 45.0078 280.836 45.0781 280.391 45.1719C279.945 45.2656 279.512 45.4062 279.09 45.5938H278.668C278.457 45.5938 278.305 45.5469 278.211 45.4531C277.906 45.6172 277.59 45.7344 277.262 45.8047C276.934 45.8516 276.605 45.875 276.277 45.875C275.855 45.875 275.434 45.8516 275.012 45.8047C274.613 45.7344 274.203 45.6641 273.781 45.5938C273.547 45.2656 273.219 45.0195 272.797 44.8555C272.375 44.668 272 44.4922 271.672 44.3281C270.992 43.3906 270.5 42.4883 270.195 41.6211C269.891 40.7305 269.574 39.7344 269.246 38.6328C269.293 38.3047 269.375 37.9883 269.492 37.6836C269.609 37.3555 269.656 37.0039 269.633 36.6289C270.055 35.4102 270.605 34.3086 271.285 33.3242C271.988 32.3164 272.785 31.3555 273.676 30.4414C273.676 30.3008 273.699 30.1836 273.746 30.0898C273.816 29.9961 273.828 29.8555 273.781 29.668C273.805 29.6914 273.852 29.7031 273.922 29.7031C274.109 29.7031 274.227 29.6562 274.273 29.5625C274.32 29.4453 274.332 29.3164 274.309 29.1758C275.152 28.6367 275.914 28.0156 276.594 27.3125C277.297 26.6094 278.094 26.0234 278.984 25.5547C279.055 25.3438 279.172 25.168 279.336 25.0273C279.5 24.8867 279.629 24.7227 279.723 24.5352C280.473 24.3242 281.152 24.0078 281.762 23.5859C282.371 23.1641 283.016 22.7891 283.695 22.4609C284.07 22.25 284.422 22.1094 284.75 22.0391C285.102 21.9453 285.477 21.8516 285.875 21.7578C286.016 21.7109 286.145 21.6758 286.262 21.6523C286.379 21.6289 286.508 21.6172 286.648 21.6172C287.07 21.6172 287.48 21.6992 287.879 21.8633C288.277 22.0039 288.688 22.0742 289.109 22.0742C289.227 22.0742 289.32 22.0742 289.391 22.0742C289.484 22.0508 289.578 22.0273 289.672 22.0039C290.07 22.4961 290.574 22.8711 291.184 23.1289C291.324 23.4805 291.488 23.7852 291.676 24.043C291.887 24.3008 292.098 24.5586 292.309 24.8164C292.52 25.0508 292.707 25.3203 292.871 25.625C293.059 25.9062 293.176 26.2461 293.223 26.6445ZM289.707 28.4727C289.707 28.3555 289.695 28.25 289.672 28.1562C289.438 28.0859 289.215 27.9922 289.004 27.875C288.793 27.7578 288.559 27.6992 288.301 27.6992C288.137 27.6992 287.973 27.7344 287.809 27.8047C287.785 27.6406 287.715 27.5234 287.598 27.4531C287.504 27.3828 287.387 27.3242 287.246 27.2773C287.129 27.207 287 27.1602 286.859 27.1367C286.742 27.0898 286.637 27.0195 286.543 26.9258C286.473 26.7383 286.391 26.5508 286.297 26.3633C286.227 26.1523 286.086 26 285.875 25.9062C285.664 26.1172 285.418 26.293 285.137 26.4336C284.855 26.5508 284.562 26.668 284.258 26.7852C283.977 26.9023 283.695 27.043 283.414 27.207C283.156 27.3711 282.934 27.5703 282.746 27.8047H282.113C281.973 28.0625 281.773 28.2617 281.516 28.4023C281.258 28.5195 281.035 28.6953 280.848 28.9297C280.473 29.1172 280.121 29.3516 279.793 29.6328C279.488 29.8906 279.184 30.1719 278.879 30.4766C278.574 30.7578 278.27 31.0508 277.965 31.3555C277.684 31.6602 277.379 31.9414 277.051 32.1992C276.746 32.8555 276.406 33.4297 276.031 33.9219C275.68 34.3906 275.34 34.8711 275.012 35.3633C274.707 35.8555 274.438 36.3945 274.203 36.9805C273.992 37.543 273.887 38.2461 273.887 39.0898V39.4414C273.887 39.5586 273.898 39.6758 273.922 39.793C274.227 40.1211 274.473 40.4727 274.66 40.8477C274.871 41.2227 275.211 41.4922 275.68 41.6562C276.148 41.8438 276.641 41.9258 277.156 41.9023C277.695 41.8789 278.211 41.9375 278.703 42.0781C279.828 41.8672 280.906 41.5273 281.938 41.0586C282.992 40.5664 283.988 39.9805 284.926 39.3008C285.066 39.1836 285.23 39.0664 285.418 38.9492C285.605 38.8086 285.758 38.668 285.875 38.5273C285.992 38.4102 286.086 38.2812 286.156 38.1406C286.25 38 286.344 37.8711 286.438 37.7539C286.625 37.4492 286.836 37.1445 287.07 36.8398C287.305 36.5352 287.551 36.2539 287.809 35.9961C287.926 35.4805 288.078 34.9883 288.266 34.5195C288.453 34.0273 288.641 33.5469 288.828 33.0781C289.016 32.6094 289.168 32.1289 289.285 31.6367C289.426 31.1445 289.496 30.6289 289.496 30.0898C289.496 29.9727 289.484 29.8438 289.461 29.7031C289.461 29.5625 289.449 29.4336 289.426 29.3164C289.613 29.0586 289.707 28.7773 289.707 28.4727ZM319.023 29.668C319.023 29.9023 318.941 30.0547 318.777 30.125C318.613 30.1953 318.531 30.3359 318.531 30.5469C318.531 30.6172 318.555 30.6758 318.602 30.7227C318.648 30.7695 318.672 30.8398 318.672 30.9336V31.0742C318.391 32.4336 317.98 33.6172 317.441 34.625C316.926 35.6328 316.316 36.5586 315.613 37.4023C314.91 38.2461 314.113 39.043 313.223 39.793C312.355 40.543 311.418 41.3281 310.41 42.1484C310.129 42.3828 309.836 42.6172 309.531 42.8516C309.25 43.0859 308.98 43.332 308.723 43.5898L307.949 44.3281C307.926 44.3516 307.797 44.4102 307.562 44.5039C307.328 44.5742 307.188 44.6211 307.141 44.6445C306.812 44.7852 306.461 44.9492 306.086 45.1367C305.734 45.3242 305.43 45.5586 305.172 45.8398C304.703 45.8398 304.305 45.9102 303.977 46.0508C303.648 46.1914 303.285 46.3789 302.887 46.6133C302.77 46.6133 302.664 46.5898 302.57 46.543C302.5 46.4961 302.418 46.4492 302.324 46.4023C302.23 46.3555 302.125 46.332 302.008 46.332C301.914 46.3086 301.785 46.3203 301.621 46.3672C301.34 45.8984 301.035 45.5 300.707 45.1719C300.379 44.8438 299.934 44.6445 299.371 44.5742C299.301 44.1758 299.137 43.8711 298.879 43.6602C298.621 43.4258 298.363 43.1797 298.105 42.9219C298.059 42.7812 298.023 42.6172 298 42.4297C297.977 42.2422 297.93 42.0664 297.859 41.9023C297.789 41.7383 297.695 41.5977 297.578 41.4805C297.461 41.3633 297.297 41.3047 297.086 41.3047C297.062 41.1641 297.121 41.0938 297.262 41.0938C297.402 41.0938 297.473 41.0352 297.473 40.918C297.473 40.7773 297.449 40.6367 297.402 40.4961C297.355 40.3555 297.332 40.2031 297.332 40.0391C297.332 39.9219 297.344 39.8164 297.367 39.7227C297.391 39.6289 297.426 39.5234 297.473 39.4062C297.402 38.7734 297.367 38.1289 297.367 37.4727C297.367 36.207 297.449 34.9648 297.613 33.7461C297.801 32.5039 297.895 31.25 297.895 29.9844C297.895 29.4219 297.859 28.8594 297.789 28.2969C297.742 27.7344 297.637 27.1836 297.473 26.6445C296.934 26.7617 296.395 26.9023 295.855 27.0664C295.316 27.207 294.812 27.4062 294.344 27.6641C294.086 27.5 293.816 27.4062 293.535 27.3828C293.23 27.3359 292.938 27.2656 292.656 27.1719C292.492 26.8438 292.41 26.5039 292.41 26.1523C292.41 25.8242 292.469 25.5078 292.586 25.2031L292.938 24.2891C293.5 24.1719 294.062 23.9961 294.625 23.7617C295.164 23.5273 295.715 23.3164 296.277 23.1289C296.465 23.082 296.699 23.0234 296.98 22.9531C297.285 22.8828 297.496 22.8242 297.613 22.7773C297.777 22.707 297.883 22.5781 297.93 22.3906C298 22.1797 298.094 22.0039 298.211 21.8633H298.809C298.949 21.8633 299.102 21.875 299.266 21.8984C299.43 21.8984 299.582 21.9336 299.723 22.0039C300.566 21.793 301.41 21.6641 302.254 21.6172C303.098 21.5469 303.965 21.4531 304.855 21.3359C304.949 21.3359 305.09 21.3242 305.277 21.3008L305.875 21.1953C306.086 21.1484 306.273 21.1133 306.438 21.0898C306.625 21.043 306.754 21.0195 306.824 21.0195C306.895 21.0195 306.93 21.0547 306.93 21.125H307.527C308.535 21.125 309.52 21.2539 310.48 21.5117L313.363 22.2852C313.762 22.6133 314.16 22.9297 314.559 23.2344C314.957 23.5391 315.402 23.8086 315.895 24.043C316.012 24.418 316.188 24.7227 316.422 24.957C316.68 25.168 316.961 25.4023 317.266 25.6602C317.383 25.9648 317.535 26.293 317.723 26.6445C317.934 26.9727 318.133 27.3125 318.32 27.6641C318.508 28.0156 318.672 28.3672 318.812 28.7188C318.953 29.0469 319.023 29.3633 319.023 29.668ZM315.754 30.1953C315.496 29.6562 315.25 29.0938 315.016 28.5078C314.781 27.9219 314.488 27.3945 314.137 26.9258C313.715 26.8086 313.281 26.668 312.836 26.5039C312.414 26.3164 312.121 26 311.957 25.5547C311.91 25.5781 311.828 25.5898 311.711 25.5898C311.5 25.5898 311.312 25.5078 311.148 25.3438C310.984 25.1797 310.797 25.0742 310.586 25.0273C310.398 25.0039 310.141 24.9688 309.812 24.9219C309.508 24.875 309.18 24.8398 308.828 24.8164C308.477 24.793 308.125 24.7695 307.773 24.7461C307.445 24.7227 307.188 24.7109 307 24.7109C306.812 24.7109 306.613 24.7227 306.402 24.7461C306.215 24.7461 306.016 24.7578 305.805 24.7812C305.617 24.7812 305.5 24.8164 305.453 24.8867C305.406 24.9336 305.312 24.9805 305.172 25.0273C305.055 24.9805 304.926 24.957 304.785 24.957H304.363C303.871 24.957 303.379 25.0391 302.887 25.2031C302.418 25.3438 301.949 25.543 301.48 25.8008V25.9414C301.48 26.1289 301.562 26.2344 301.727 26.2578C301.891 26.2812 301.984 26.375 302.008 26.5391C301.891 26.5391 301.797 26.5508 301.727 26.5742C301.656 26.5742 301.621 26.6562 301.621 26.8203C301.621 27.0547 301.645 27.3125 301.691 27.5938C301.762 27.875 301.797 28.1562 301.797 28.4375C301.797 28.6484 301.773 28.8945 301.727 29.1758C301.68 29.457 301.562 29.6797 301.375 29.8438C301.609 30.0547 301.727 30.3359 301.727 30.6875C301.727 30.9219 301.68 31.168 301.586 31.4258C301.492 31.6836 301.375 31.9062 301.234 32.0938C301.188 33.0781 301.094 34.0742 300.953 35.082C300.812 36.0898 300.742 37.0859 300.742 38.0703C300.742 38.5625 300.766 39.043 300.812 39.5117C300.883 39.9805 300.988 40.4492 301.129 40.918C301.387 41.1758 301.656 41.375 301.938 41.5156C302.242 41.6562 302.559 41.7969 302.887 41.9375V42.043C302.887 42.1133 302.84 42.1836 302.746 42.2539C302.652 42.3242 302.605 42.418 302.605 42.5352C302.605 42.6289 302.652 42.6758 302.746 42.6758C303.73 42.3945 304.656 42.0547 305.523 41.6562C306.391 41.2578 307.199 40.7188 307.949 40.0391C308.02 39.9688 308.09 39.9336 308.16 39.9336C308.207 39.9336 308.266 39.9453 308.336 39.9688C308.43 39.9922 308.512 40.0156 308.582 40.0391L308.547 39.8984C308.547 39.7578 308.582 39.6289 308.652 39.5117C308.746 39.3945 308.852 39.2891 308.969 39.1953L309.32 38.8789C309.438 38.7617 309.531 38.6445 309.602 38.5273C309.789 38.4805 309.918 38.3867 309.988 38.2461C310.082 38.1055 310.234 38.0352 310.445 38.0352C310.492 37.7773 310.621 37.5898 310.832 37.4727C311.043 37.332 311.172 37.1328 311.219 36.875C311.688 36.6172 312.098 36.3008 312.449 35.9258C312.824 35.5508 313.164 35.1523 313.469 34.7305C313.797 34.3086 314.102 33.875 314.383 33.4297C314.664 32.9609 314.957 32.5156 315.262 32.0938V31.9531C315.262 31.5781 315.32 31.2734 315.438 31.0391C315.578 30.8047 315.684 30.5234 315.754 30.1953Z" fill="black"/>
</svg>
